<svg width="576" height="120" viewBox="0 0 576 120" fill="none" xmlns="http://www.w3.org/2000/svg">
<path d="M153.72 16.176C163 16.176 169.528 24.976 173.304 42.576C173.688 43.6 173.88 45.68 173.88 48.816V49.488C173.88 56.208 171.768 63.92 167.544 72.624C169.208 73.2 171.768 73.488 175.224 73.488C178.744 73.488 182.776 72.272 187.32 69.84C188.664 69.84 189.592 70.96 190.104 73.2C190.104 75.952 184.76 77.968 174.072 79.248H173.88L163.032 77.616C158.424 81.264 154.04 83.088 149.88 83.088C141.176 83.088 134.36 77.072 129.432 65.04C127.832 60.304 127.032 55.312 127.032 50.064V48.624C127.032 33.648 130.84 24.048 138.456 19.824L144.12 18.288L146.232 18.576C148.664 16.976 151.16 16.176 153.72 16.176ZM141.72 42.864V45.84C141.72 57.104 148.312 65.424 161.496 70.8C165.912 64.656 168.12 57.456 168.12 49.2V48.624C168.12 38.64 164.92 30.224 158.52 23.376C156.536 22.352 155.064 21.84 154.104 21.84H153.144C150.328 21.84 147.512 23.952 144.696 28.176C142.712 32.528 141.72 37.424 141.72 42.864ZM132.696 48.24V51.216C132.696 64.208 137.304 72.752 146.52 76.848C147.288 77.232 148.408 77.424 149.88 77.424H150.456C153.016 77.424 155.032 76.688 156.504 75.216V74.64C142.872 68.112 136.056 58.032 136.056 44.4V42.864C136.056 37.104 137.272 31.504 139.704 26.064H139.032C134.808 29.968 132.696 37.36 132.696 48.24Z" fill="white"/>
<path d="M184.351 49.104L186.079 48.144C187.615 48.144 188.735 49.072 189.439 50.928C188.415 55.664 187.903 60.528 187.903 65.52C187.903 68.016 188.639 70.736 190.111 73.68H190.687C192.543 73.68 194.752 66.352 197.312 51.696C198.208 50.928 199.071 50.544 199.903 50.544C201.887 50.544 202.88 54.064 202.88 61.104C203.712 68.848 204.639 72.72 205.663 72.72L207.104 72.144C208.96 72.848 209.887 73.84 209.887 75.12C208.735 77.552 207.136 78.768 205.088 78.768C202.784 78.768 200.576 76.464 198.464 71.856C195.904 77.232 193.311 79.92 190.687 79.92C186.783 79.92 184.063 75.856 182.527 67.728L182.239 64.656V63.696C182.239 58.576 182.943 53.712 184.351 49.104Z" fill="white"/>
<path d="M229.87 40.944C232.686 40.944 234.094 42.064 234.094 44.304L233.23 46.128L232.654 63.696C232.654 71.632 234.254 76.56 237.454 78.48L237.646 79.92C237.454 81.776 236.59 82.704 235.054 82.704H234.478C229.678 79.44 227.278 74.448 227.278 67.728H226.606C224.046 74.896 220.942 78.48 217.294 78.48C213.902 77.52 212.206 74.992 212.206 70.896C212.206 61.872 215.822 52.88 223.054 43.92C225.486 41.936 227.758 40.944 229.87 40.944ZM218.254 67.056L217.87 69.744V71.568H218.83C223.63 59.6 226.03 52.304 226.03 49.68H225.646C221.934 53.84 219.47 59.632 218.254 67.056Z" fill="white"/>
<path d="M252.429 45.648C257.869 46.096 260.589 48.752 260.589 53.616L260.781 54.864L260.589 69.84C260.589 71.568 261.581 73.904 263.565 76.848V77.04C263.053 78.896 262.125 79.824 260.781 79.824C256.813 78.16 254.829 74.64 254.829 69.264V68.016L254.541 67.824L254.829 67.44V67.248L255.117 54C255.117 52.144 254.317 51.216 252.717 51.216H251.565C248.365 52.496 246.765 59.504 246.765 72.24C246.765 76.656 245.645 78.864 243.405 78.864C241.677 78.864 240.781 77.776 240.717 75.6V66C240.717 53.584 241.805 47.376 243.981 47.376L244.941 47.088L246.957 47.376C248.685 46.224 250.509 45.648 252.429 45.648Z" fill="white"/>
<path d="M277.902 19.728C279.694 20.112 280.59 21.008 280.59 22.416L280.014 26.64V27.888C280.014 30.704 280.334 33.68 280.974 36.816H281.166C288.59 34.576 293.198 33.456 294.99 33.456C296.846 33.968 297.774 34.896 297.774 36.24C297.774 38.416 295.566 39.504 291.15 39.504L281.166 43.056C281.166 51.696 282.094 63.44 283.95 78.288C283.566 80.016 282.638 80.88 281.166 80.88H280.974C278.734 80.88 277.614 78 277.614 72.24C276.782 67.952 276.078 58.64 275.502 44.304H273.774C267.758 43.92 264.75 42.512 264.75 40.08C264.75 39.376 265.422 38.512 266.766 37.488H267.726L272.142 38.64H275.214L274.35 26.64C274.35 22.032 275.534 19.728 277.902 19.728Z" fill="white"/>
<path d="M304.539 49.104L306.267 48.144C307.803 48.144 308.923 49.072 309.627 50.928C308.603 55.664 308.091 60.528 308.091 65.52C308.091 68.016 308.827 70.736 310.299 73.68H310.875C312.731 73.68 314.939 66.352 317.499 51.696C318.395 50.928 319.259 50.544 320.091 50.544C322.075 50.544 323.067 54.064 323.067 61.104C323.899 68.848 324.827 72.72 325.851 72.72L327.291 72.144C329.147 72.848 330.075 73.84 330.075 75.12C328.923 77.552 327.323 78.768 325.275 78.768C322.971 78.768 320.763 76.464 318.651 71.856C316.091 77.232 313.499 79.92 310.875 79.92C306.971 79.92 304.251 75.856 302.715 67.728L302.427 64.656V63.696C302.427 58.576 303.131 53.712 304.539 49.104Z" fill="white"/>
<path d="M333.641 44.4C334.089 42.8 335.113 42 336.713 42C338.313 42 339.369 43.6 339.881 46.8H340.265L344.681 45.84C346.729 45.84 348.713 47.76 350.633 51.6H351.017C353.833 47.184 356.713 44.976 359.657 44.976C365.929 46.128 369.065 50.224 369.065 57.264L369.257 60.624L368.393 80.016V81.84C368.393 83.44 367.401 84.368 365.417 84.624C363.433 84.624 362.441 82.288 362.441 77.616L363.593 60.24C363.593 53.84 362.089 50.64 359.081 50.64C357.353 50.64 355.273 54.832 352.841 63.216C351.625 72.816 350.633 77.616 349.865 77.616C348.777 77.616 348.233 77.84 348.233 78.288C346.249 78.032 345.257 77.008 345.257 75.216L346.505 63.6C346.313 55.6 345.513 51.6 344.105 51.6H343.817C342.217 52.816 341.417 55.216 341.417 58.8V63.888L341.033 78.576C340.585 80.176 339.593 80.976 338.057 80.976C336.713 80.976 335.849 79.856 335.465 77.616L335.081 66.288L335.657 56.976C335.273 52.176 334.601 47.984 333.641 44.4Z" fill="white"/>
<path d="M402.222 7.92H402.51C404.11 8.752 404.91 9.68 404.91 10.704L402.51 28.944C402.51 35.6 404.494 49.392 408.462 70.32L413.262 82.32C413.262 83.152 412.59 84.08 411.246 85.104H409.422C408.142 84.72 406.222 80.784 403.662 73.296C401.998 67.28 400.334 58 398.67 45.456H398.094C394.382 56.464 391.758 62.16 390.222 62.544L388.686 62.928C387.342 62.928 385.678 60.304 383.694 55.056H383.022C382.254 70.864 380.75 78.768 378.51 78.768H378.222C376.174 78.768 375.054 77.168 374.862 73.968C376.462 67.824 377.262 61.424 377.262 54.768L374.67 29.328V27.504C374.67 25.072 375.534 23.856 377.262 23.856C379.758 23.856 381.966 28.752 383.886 38.544C386.702 47.44 388.43 52.24 389.07 52.944C390.542 50.64 392.014 46.544 393.486 40.656C394.638 37.648 395.758 32.944 396.846 26.544L396.462 26.256L396.846 24.72V24.144C397.422 13.328 399.214 7.92 402.222 7.92Z" fill="white"/>
<path d="M424.933 43.536C427.493 43.6 431.813 48.08 437.893 56.976L438.085 58.608C438.085 60.4 433.701 61.776 424.933 62.736L424.645 63.024V63.408C425.989 69.168 427.397 72.048 428.869 72.048H430.021C432.069 72.048 435.173 69.84 439.333 65.424H439.909C441.189 65.424 442.181 66.352 442.885 68.208C442.885 69.744 440.197 72.4 434.821 76.176C433.413 77.008 431.717 77.616 429.733 78C424.549 78 420.933 73.136 418.885 63.408C415.941 62.96 414.469 61.744 414.469 59.76C414.469 58.352 415.557 57.424 417.733 56.976V57.36L418.693 56.976V54.576C418.693 47.216 420.773 43.536 424.933 43.536ZM425.509 50.448H424.645L424.261 54V56.976H424.645C428.229 56.848 430.021 56.464 430.021 55.824C428.357 53.328 426.853 51.536 425.509 50.448Z" fill="white"/>
<path d="M448.11 44.4C448.558 42.8 449.582 42 451.182 42C452.782 42 453.838 43.6 454.35 46.8H454.734L459.15 45.84C461.198 45.84 463.182 47.76 465.102 51.6H465.486C468.302 47.184 471.182 44.976 474.126 44.976C480.398 46.128 483.534 50.224 483.534 57.264L483.726 60.624L482.862 80.016V81.84C482.862 83.44 481.87 84.368 479.886 84.624C477.902 84.624 476.91 82.288 476.91 77.616L478.062 60.24C478.062 53.84 476.558 50.64 473.55 50.64C471.822 50.64 469.742 54.832 467.31 63.216C466.094 72.816 465.102 77.616 464.334 77.616C463.246 77.616 462.702 77.84 462.702 78.288C460.718 78.032 459.726 77.008 459.726 75.216L460.974 63.6C460.782 55.6 459.982 51.6 458.574 51.6H458.286C456.686 52.816 455.886 55.216 455.886 58.8V63.888L455.502 78.576C455.054 80.176 454.062 80.976 452.526 80.976C451.182 80.976 450.318 79.856 449.934 77.616L449.55 66.288L450.126 56.976C449.742 52.176 449.07 47.984 448.11 44.4Z" fill="white"/>
<path d="M504.403 41.808C509.139 41.808 512.723 45.328 515.155 52.368L515.539 54.384C515.539 61.232 512.339 68.24 505.939 75.408C503.379 77.776 500.787 78.96 498.163 78.96C494.323 78.96 491.603 76.752 490.003 72.336C489.427 70.288 489.139 68.496 489.139 66.96V65.808C489.139 55.696 492.819 48.016 500.179 42.768C501.459 42.128 502.867 41.808 504.403 41.808ZM494.803 66.768C494.803 71.12 495.923 73.296 498.163 73.296C502.835 73.296 506.707 67.312 509.779 55.344V53.52C508.691 49.552 506.675 47.568 503.731 47.568C502.579 47.568 502.003 48.368 502.003 49.968C502.003 51.056 500.723 51.92 498.163 52.56C495.923 56.336 494.803 61.072 494.803 66.768Z" fill="white"/>
<path d="M532.465 40.176C536.497 40.176 538.897 42.992 539.665 48.624V49.488C539.665 55.696 536.465 61.392 530.065 66.576C533.777 70.224 540.273 72.048 549.553 72.048C550.961 72.496 551.665 73.488 551.665 75.024C551.665 76.752 550.545 77.616 548.305 77.616C542.033 77.616 535.441 76.016 528.529 72.816V75.6C528.529 82.192 527.121 85.488 524.305 85.488C522.321 85.488 521.329 81.68 521.329 74.064V66.576L521.041 63.888L521.713 60.816L521.041 51.6V51.216C521.041 49.488 521.937 48.304 523.729 47.664C526.225 42.672 529.137 40.176 532.465 40.176ZM527.665 61.2C529.521 61.2 531.601 57.872 533.905 51.216V47.088L532.753 45.84H531.889C529.073 47.76 527.665 52.88 527.665 61.2Z" fill="white"/>
<path d="M557.927 49.2C560.167 49.2 561.703 54.128 562.535 63.984C563.623 68.528 564.423 70.8 564.935 70.8H565.511C567.111 66.768 567.911 62.768 567.911 58.8L567.335 52.176C568.039 50.448 569.031 49.584 570.311 49.584C572.679 49.584 573.863 53.776 573.863 62.16C575.271 70.864 575.975 78.96 575.975 86.448V90.96C575.975 104.72 572.071 114 564.263 118.8L562.151 119.184C558.503 119.184 555.111 115.792 551.975 109.008L551.111 103.248V102.96C551.111 98.736 552.295 96.624 554.663 96.624L557.063 98.16L556.775 104.208C556.775 107.152 558.279 110.128 561.287 113.136H562.535C566.055 113.136 568.647 106.416 570.311 92.976L570.503 87.408C570.439 80.944 570.183 76.816 569.735 75.024C567.175 77.264 565.159 78.384 563.687 78.384C560.423 78.384 557.511 69.648 554.951 52.176L554.663 51.984C554.663 50.512 555.751 49.584 557.927 49.2Z" fill="white"/>
<ellipse cx="27" cy="70.5" rx="27" ry="28.5" fill="#0B0B0B"/>
<ellipse cx="76" cy="28.5" rx="27" ry="28.5" fill="#7411FF"/>
</svg>
