<svg width="563" height="108" viewBox="0 0 563 108" fill="none" xmlns="http://www.w3.org/2000/svg">
<path d="M57 90.4608C57 106.201 44.2401 101.961 28.5 101.961C12.7599 101.961 0 106.201 0 90.4608C0 74.7207 12.7599 77.9608 28.5 77.9608C44.2401 77.9608 57 74.7207 57 90.4608Z" fill="#0B0B0B"/>
<path d="M69.5 33.4608C69.5 49.2009 72.2401 61.9608 56.5 61.9608C40.7599 61.9608 44 49.2009 44 33.4608C44 17.7207 40.7599 4.96082 56.5 4.96082C72.2401 4.96082 69.5 17.7207 69.5 33.4608Z" fill="#D6474A"/>
<path d="M123.179 45.6445C122.658 53.5872 121.779 60.5859 120.542 66.6406C119.37 72.6302 118.133 77.3177 116.831 80.7031C117.547 81.5495 118.263 82.4935 118.98 83.5352C119.761 84.5117 120.444 85.4557 121.03 86.3672C121.681 87.3438 122.202 88.1901 122.593 88.9062C123.049 89.6224 123.277 90.1432 123.277 90.4688C123.277 90.9896 122.918 91.6732 122.202 92.5195C121.551 93.3659 120.77 94.1797 119.859 94.9609C118.947 95.7422 118.068 96.3607 117.222 96.8164C116.375 97.3372 115.757 97.5326 115.366 97.4023C115.171 97.3372 114.813 96.9141 114.292 96.1328C113.836 95.3516 113.348 94.375 112.827 93.2031C112.306 92.0312 111.753 90.7617 111.167 89.3945C110.646 88.0924 110.191 86.8555 109.8 85.6836C108.563 85.4232 107.196 85.0326 105.698 84.5117C104.266 83.9909 102.899 83.4701 101.597 82.9492C100.295 82.3633 99.1554 81.7773 98.1788 81.1914C97.2674 80.6055 96.6815 80.1172 96.421 79.7266C96.0955 79.2057 95.6072 77.9036 94.9562 75.8203C94.3052 73.737 93.6216 71.1654 92.9054 68.1055C92.1893 64.9805 91.5382 61.5299 90.9523 57.7539C90.3663 53.9779 90.0408 50.1367 89.9757 46.2305C89.8455 42.3242 89.7479 38.4505 89.6828 34.6094C89.6828 30.7682 89.7479 27.3177 89.8781 24.2578C90.0734 21.1979 90.3989 18.6589 90.8546 16.6406C91.3104 14.6224 91.994 13.4505 92.9054 13.125C94.7283 12.5391 96.714 12.2135 98.8624 12.1484C101.011 12.0833 103.159 12.2135 105.308 12.5391C107.456 12.8646 109.54 13.3529 111.558 14.0039C113.576 14.6549 115.366 15.3711 116.929 16.1523C118.491 16.9336 119.761 17.7474 120.737 18.5938C121.714 19.4401 122.267 20.2214 122.398 20.9375C122.593 21.0677 122.756 21.9466 122.886 23.5742C123.016 25.2018 123.114 27.2201 123.179 29.6289C123.309 31.9727 123.374 34.5768 123.374 37.4414C123.374 40.306 123.309 43.0404 123.179 45.6445ZM106.284 79.5312C106.545 79.4661 107 79.1081 107.652 78.457C108.303 77.806 108.954 76.5039 109.605 74.5508C110.321 72.5977 110.972 69.8307 111.558 66.25C112.209 62.6693 112.665 57.8841 112.925 51.8945C113.185 45.9701 113.185 41.0221 112.925 37.0508C112.665 33.0143 112.274 29.7917 111.753 27.3828C111.297 24.9089 110.842 23.151 110.386 22.1094C109.93 21.0026 109.637 20.3841 109.507 20.2539C109.377 20.1237 109.149 19.9935 108.823 19.8633C108.563 19.668 108.237 19.5703 107.847 19.5703C107.456 19.5052 107.098 19.5378 106.773 19.668C106.447 19.7982 106.187 20.0586 105.991 20.4492C105.796 20.8398 105.471 22.1419 105.015 24.3555C104.559 26.5039 104.103 29.2383 103.648 32.5586C103.257 35.8138 102.899 39.4271 102.573 43.3984C102.313 47.3047 102.215 51.1784 102.28 55.0195C102.346 57.7539 102.508 60.5859 102.769 63.5156C103.029 66.4453 103.322 69.1146 103.648 71.5234C104.038 73.9323 104.429 75.8854 104.819 77.3828C105.275 78.8802 105.763 79.5964 106.284 79.5312Z" fill="white"/>
<path d="M150.816 32.2656C150.946 32.4609 151.141 33.3724 151.402 35C151.662 36.6276 151.922 38.6458 152.183 41.0547C152.508 43.4635 152.801 46.0677 153.062 48.8672C153.387 51.6667 153.68 54.3359 153.941 56.875C154.266 59.4141 154.527 61.6927 154.722 63.7109C154.917 65.7292 155.08 67.0964 155.21 67.8125C155.405 68.9844 155.633 70.2865 155.894 71.7188C156.154 73.0859 156.382 74.4206 156.577 75.7227C156.773 76.9596 156.903 78.0339 156.968 78.9453C157.098 79.8568 157.066 80.4102 156.87 80.6055C156.74 80.8008 156.219 80.8659 155.308 80.8008C154.396 80.6706 153.387 80.4753 152.28 80.2148C151.239 79.8893 150.23 79.5312 149.253 79.1406C148.342 78.6849 147.756 78.2617 147.495 77.8711C147.235 77.5456 146.974 77.0573 146.714 76.4062C146.519 75.7552 146.258 74.6159 145.933 72.9883C145.217 73.9648 144.435 75.0065 143.589 76.1133C142.808 77.1549 142.027 78.1315 141.245 79.043C140.464 79.8893 139.748 80.5729 139.097 81.0938C138.446 81.6146 137.957 81.875 137.632 81.875C137.111 81.875 136.33 81.3542 135.288 80.3125C134.247 79.2057 133.205 77.9688 132.163 76.6016C131.122 75.2344 130.178 73.9323 129.331 72.6953C128.485 71.4583 128.029 70.6445 127.964 70.2539C127.834 69.8633 127.769 68.7891 127.769 67.0312C127.834 65.2734 127.899 63.3203 127.964 61.1719C128.094 58.9583 128.224 56.7773 128.355 54.6289C128.485 52.4154 128.615 50.6576 128.745 49.3555C128.875 48.0534 129.006 46.6211 129.136 45.0586C129.331 43.431 129.527 41.9336 129.722 40.5664C129.917 39.1341 130.08 37.8971 130.21 36.8555C130.405 35.8138 130.568 35.1953 130.698 35C130.829 34.8047 131.187 34.707 131.773 34.707C132.424 34.6419 133.075 34.6745 133.726 34.8047C134.442 34.8698 135.093 35.0326 135.679 35.293C136.265 35.4883 136.655 35.7487 136.851 36.0742C136.981 36.3346 137.046 37.181 137.046 38.6133C137.111 39.9805 137.144 41.6732 137.144 43.6914C137.144 45.6445 137.144 47.793 137.144 50.1367C137.144 52.4154 137.111 54.5638 137.046 56.582C137.046 58.5352 137.013 60.2279 136.948 61.6602C136.948 63.0273 136.948 63.8411 136.948 64.1016C136.948 64.6224 137.241 65.6315 137.827 67.1289C138.478 68.6263 139.129 70.0586 139.78 71.4258L144.859 65.3711C144.793 64.1992 144.728 62.7018 144.663 60.8789C144.663 59.056 144.631 57.1354 144.566 55.1172C144.5 53.099 144.435 51.0482 144.37 48.9648C144.305 46.8815 144.273 44.9935 144.273 43.3008C144.273 41.6081 144.273 40.2083 144.273 39.1016C144.273 37.9948 144.305 37.3438 144.37 37.1484C144.566 36.7578 144.956 36.237 145.542 35.5859C146.128 34.9349 146.779 34.3164 147.495 33.7305C148.211 33.1445 148.862 32.6888 149.448 32.3633C150.099 32.0378 150.555 32.0052 150.816 32.2656Z" fill="white"/>
<path d="M186.362 33.1445C186.753 33.6003 187.111 34.0885 187.437 34.6094C187.762 35.0651 188.055 35.7161 188.316 36.5625C188.576 37.3438 188.771 38.3854 188.902 39.6875C189.097 40.9896 189.194 42.6823 189.194 44.7656C189.194 48.0859 189.097 51.4388 188.902 54.8242C188.771 58.1445 188.641 61.0742 188.511 63.6133C188.446 65.8919 188.381 68.0078 188.316 69.9609C188.25 71.9141 188.185 73.6393 188.12 75.1367C188.055 76.569 187.957 77.7083 187.827 78.5547C187.762 79.401 187.697 79.8568 187.632 79.9219C187.372 80.1172 186.948 80.0521 186.362 79.7266C185.842 79.3359 185.256 78.8477 184.605 78.2617C184.019 77.6758 183.465 77.0573 182.944 76.4062C182.424 75.7552 182.098 75.2344 181.968 74.8438C181.968 74.5182 181.87 73.5742 181.675 72.0117C180.112 72.9232 178.387 73.5742 176.499 73.9648C174.611 74.2904 172.723 74.4206 170.835 74.3555C169.012 74.2253 167.319 73.8672 165.757 73.2812C164.194 72.6953 163.023 71.9141 162.241 70.9375C161.916 70.5469 161.623 69.9609 161.362 69.1797C161.167 68.3984 160.972 67.5195 160.777 66.543C160.646 65.5013 160.516 64.4271 160.386 63.3203C160.256 62.1484 160.158 61.0742 160.093 60.0977C159.963 57.5586 160.288 55.3776 161.069 53.5547C161.851 51.6667 163.283 50.2669 165.366 49.3555C166.278 48.9648 167.482 48.7695 168.98 48.7695C170.542 48.7044 172.072 48.7695 173.569 48.9648C175.132 49.0951 176.532 49.2904 177.769 49.5508C179.006 49.7461 179.787 49.9089 180.112 50.0391C179.852 46.7188 179.657 43.8542 179.527 41.4453C179.396 38.9714 179.136 37.3763 178.745 36.6602C178.42 36.2044 178.029 35.7487 177.573 35.293C177.183 34.9674 176.662 34.6094 176.011 34.2188C175.36 33.8281 174.579 33.5352 173.667 33.3398C172.951 33.2096 172.3 33.5026 171.714 34.2188C171.193 34.8698 170.705 36.0417 170.249 37.7344C169.859 39.362 169.631 41.8685 169.566 45.2539C167.287 45.319 165.529 45.319 164.292 45.2539C163.12 45.1237 162.241 44.9935 161.655 44.8633C160.939 44.7331 160.516 44.5703 160.386 44.375C160.256 44.1146 160.321 43.1706 160.581 41.543C160.842 39.8503 161.2 38.0273 161.655 36.0742C162.176 34.1211 162.762 32.2656 163.413 30.5078C164.129 28.75 164.878 27.6432 165.659 27.1875C167.222 26.276 169.077 25.9505 171.226 26.2109C173.439 26.4714 175.588 27.0247 177.671 27.8711C179.754 28.7174 181.61 29.6615 183.237 30.7031C184.865 31.7448 185.907 32.5586 186.362 33.1445ZM180.308 61.6602C180.308 61.3346 180.34 60.9115 180.405 60.3906C180.471 59.8047 180.503 59.2188 180.503 58.6328C180.503 58.0469 180.471 57.4935 180.405 56.9727C180.405 56.4518 180.34 56.0612 180.21 55.8008C180.015 55.4102 179.429 55.0846 178.452 54.8242C177.541 54.5638 176.499 54.401 175.327 54.3359C174.155 54.2057 173.049 54.1732 172.007 54.2383C170.965 54.2383 170.249 54.3685 169.859 54.6289C169.338 54.9544 168.947 55.4102 168.687 55.9961C168.491 56.582 168.361 57.4935 168.296 58.7305C168.296 59.3164 168.329 59.9349 168.394 60.5859C168.459 61.237 168.524 61.888 168.589 62.5391C168.719 63.125 168.849 63.6458 168.98 64.1016C169.175 64.5573 169.37 64.8503 169.566 64.9805C170.021 65.306 170.803 65.599 171.909 65.8594C173.081 66.0547 174.253 66.1198 175.425 66.0547C176.597 65.9245 177.671 65.5339 178.648 64.8828C179.624 64.2318 180.178 63.1576 180.308 61.6602Z" fill="white"/>
<path d="M223.179 43.5938C223.179 44.6354 223.049 46.1328 222.788 48.0859C222.593 50.0391 222.3 52.1875 221.909 54.5312C221.519 56.8099 221.096 59.1862 220.64 61.6602C220.249 64.069 219.826 66.2826 219.37 68.3008C218.98 70.319 218.622 72.0117 218.296 73.3789C218.036 74.7461 217.873 75.4948 217.808 75.625C217.678 75.8203 217.319 75.9505 216.734 76.0156C216.213 76.0156 215.594 75.9505 214.878 75.8203C214.227 75.6901 213.609 75.4948 213.023 75.2344C212.502 74.974 212.176 74.6484 212.046 74.2578C211.981 73.9974 211.948 73.0859 211.948 71.5234C212.013 69.9609 212.079 68.1055 212.144 65.957C212.274 63.7435 212.404 61.3997 212.534 58.9258C212.665 56.3867 212.795 54.043 212.925 51.8945C213.12 49.681 213.25 47.793 213.316 46.2305C213.446 44.668 213.511 43.724 213.511 43.3984C213.511 42.2266 213.381 41.1198 213.12 40.0781C212.925 38.9714 212.665 38.0273 212.339 37.2461C212.013 36.4648 211.623 35.8789 211.167 35.4883C210.777 35.0326 210.418 34.8698 210.093 35C209.247 35.1302 208.53 35.3581 207.944 35.6836C207.359 35.944 206.87 36.237 206.48 36.5625C206.024 36.9531 205.666 37.4089 205.405 37.9297C205.34 38.0599 205.21 38.4505 205.015 39.1016C204.885 39.7526 204.819 40.5013 204.819 41.3477C204.819 41.6081 204.819 42.5521 204.819 44.1797C204.819 45.7422 204.787 47.6302 204.722 49.8438C204.722 52.0573 204.689 54.4661 204.624 57.0703C204.624 59.6094 204.592 61.9857 204.527 64.1992C204.527 66.3477 204.494 68.2031 204.429 69.7656C204.364 71.3281 204.299 72.207 204.234 72.4023C204.103 72.793 203.778 73.3464 203.257 74.0625C202.736 74.7135 202.15 75.332 201.499 75.918C200.848 76.5039 200.23 76.9596 199.644 77.2852C199.058 77.5456 198.667 77.4805 198.472 77.0898C198.277 76.8945 198.081 75.9505 197.886 74.2578C197.691 72.5 197.463 70.3841 197.202 67.9102C197.007 65.3711 196.779 62.6367 196.519 59.707C196.258 56.7122 196.03 53.8477 195.835 51.1133C195.64 48.3789 195.477 45.9049 195.347 43.6914C195.217 41.4779 195.119 39.8828 195.054 38.9062C194.989 37.5391 194.924 36.0091 194.859 34.3164C194.793 32.5586 194.728 30.931 194.663 29.4336C194.663 27.8711 194.663 26.5365 194.663 25.4297C194.728 24.2578 194.859 23.5417 195.054 23.2812C195.184 23.0208 195.607 22.9557 196.323 23.0859C197.105 23.2161 197.918 23.4766 198.765 23.8672C199.676 24.1927 200.523 24.6159 201.304 25.1367C202.085 25.5924 202.606 26.0482 202.866 26.5039C202.997 26.8945 203.159 27.3503 203.355 27.8711C203.55 28.3268 203.713 29.1081 203.843 30.2148C204.95 29.5638 206.154 28.9779 207.456 28.457C208.758 27.8711 210.028 27.4479 211.265 27.1875C212.567 26.862 213.804 26.7643 214.976 26.8945C216.148 26.9596 217.189 27.2852 218.101 27.8711C218.687 28.3268 219.273 29.1081 219.859 30.2148C220.51 31.3216 221.063 32.6237 221.519 34.1211C222.04 35.6185 222.43 37.2135 222.691 38.9062C223.016 40.5339 223.179 42.0964 223.179 43.5938Z" fill="white"/>
<path d="M249.839 34.3164C249.904 34.5117 249.904 35.0651 249.839 35.9766C249.774 36.8229 249.644 37.7995 249.448 38.9062C249.318 39.9479 249.155 40.9245 248.96 41.8359C248.765 42.6823 248.602 43.2031 248.472 43.3984C247.821 43.4635 247.17 43.4961 246.519 43.4961C245.868 43.431 245.249 43.3984 244.663 43.3984H242.612C242.547 47.6953 242.45 51.9596 242.319 56.1914C242.189 60.4232 242.027 64.2318 241.831 67.6172C241.636 70.9375 241.408 73.6393 241.148 75.7227C240.952 77.806 240.757 78.8802 240.562 78.9453C240.106 79.0104 239.585 78.8151 238.999 78.3594C238.413 77.9036 237.827 77.3503 237.241 76.6992C236.721 75.9831 236.232 75.2669 235.777 74.5508C235.386 73.7695 235.158 73.0859 235.093 72.5C234.767 68.5286 234.474 64.7526 234.214 61.1719C233.954 57.526 233.758 54.3034 233.628 51.5039C233.368 48.2487 233.205 45.2214 233.14 42.4219C232.424 42.3568 231.707 42.2591 230.991 42.1289C230.34 41.9987 229.657 41.8685 228.941 41.7383C228.29 41.6081 227.606 41.4779 226.89 41.3477C226.76 41.2174 226.597 40.9245 226.402 40.4688C226.206 39.9479 226.011 39.3945 225.816 38.8086C225.685 38.2227 225.555 37.6693 225.425 37.1484C225.295 36.5625 225.23 36.1393 225.23 35.8789C225.23 35.6836 225.946 35.4883 227.378 35.293C228.875 35.0977 230.698 34.9349 232.847 34.8047C232.717 31.3542 232.619 28.3594 232.554 25.8203C232.554 23.2161 232.652 21.4583 232.847 20.5469C233.042 19.3099 233.563 18.138 234.409 17.0312C235.321 15.8594 236.265 14.8503 237.241 14.0039C238.283 13.1576 239.227 12.5391 240.073 12.1484C240.985 11.6927 241.571 11.5625 241.831 11.7578C242.027 11.888 242.189 12.5716 242.319 13.8086C242.45 14.9805 242.547 16.5755 242.612 18.5938C242.678 20.612 242.71 22.9883 242.71 25.7227C242.71 28.3919 242.71 31.224 242.71 34.2188C244.663 34.0885 246.323 34.056 247.691 34.1211C249.058 34.1211 249.774 34.1862 249.839 34.3164Z" fill="white"/>
<path d="M274.937 32.2656C275.067 32.4609 275.262 33.3724 275.523 35C275.783 36.6276 276.043 38.6458 276.304 41.0547C276.629 43.4635 276.922 46.0677 277.183 48.8672C277.508 51.6667 277.801 54.3359 278.062 56.875C278.387 59.4141 278.648 61.6927 278.843 63.7109C279.038 65.7292 279.201 67.0964 279.331 67.8125C279.527 68.9844 279.754 70.2865 280.015 71.7188C280.275 73.0859 280.503 74.4206 280.698 75.7227C280.894 76.9596 281.024 78.0339 281.089 78.9453C281.219 79.8568 281.187 80.4102 280.991 80.6055C280.861 80.8008 280.34 80.8659 279.429 80.8008C278.517 80.6706 277.508 80.4753 276.402 80.2148C275.36 79.8893 274.351 79.5312 273.374 79.1406C272.463 78.6849 271.877 78.2617 271.616 77.8711C271.356 77.5456 271.096 77.0573 270.835 76.4062C270.64 75.7552 270.379 74.6159 270.054 72.9883C269.338 73.9648 268.556 75.0065 267.71 76.1133C266.929 77.1549 266.148 78.1315 265.366 79.043C264.585 79.8893 263.869 80.5729 263.218 81.0938C262.567 81.6146 262.079 81.875 261.753 81.875C261.232 81.875 260.451 81.3542 259.409 80.3125C258.368 79.2057 257.326 77.9688 256.284 76.6016C255.243 75.2344 254.299 73.9323 253.452 72.6953C252.606 71.4583 252.15 70.6445 252.085 70.2539C251.955 69.8633 251.89 68.7891 251.89 67.0312C251.955 65.2734 252.02 63.3203 252.085 61.1719C252.215 58.9583 252.346 56.7773 252.476 54.6289C252.606 52.4154 252.736 50.6576 252.866 49.3555C252.997 48.0534 253.127 46.6211 253.257 45.0586C253.452 43.431 253.648 41.9336 253.843 40.5664C254.038 39.1341 254.201 37.8971 254.331 36.8555C254.527 35.8138 254.689 35.1953 254.819 35C254.95 34.8047 255.308 34.707 255.894 34.707C256.545 34.6419 257.196 34.6745 257.847 34.8047C258.563 34.8698 259.214 35.0326 259.8 35.293C260.386 35.4883 260.777 35.7487 260.972 36.0742C261.102 36.3346 261.167 37.181 261.167 38.6133C261.232 39.9805 261.265 41.6732 261.265 43.6914C261.265 45.6445 261.265 47.793 261.265 50.1367C261.265 52.4154 261.232 54.5638 261.167 56.582C261.167 58.5352 261.135 60.2279 261.069 61.6602C261.069 63.0273 261.069 63.8411 261.069 64.1016C261.069 64.6224 261.362 65.6315 261.948 67.1289C262.599 68.6263 263.25 70.0586 263.902 71.4258L268.98 65.3711C268.915 64.1992 268.849 62.7018 268.784 60.8789C268.784 59.056 268.752 57.1354 268.687 55.1172C268.622 53.099 268.556 51.0482 268.491 48.9648C268.426 46.8815 268.394 44.9935 268.394 43.3008C268.394 41.6081 268.394 40.2083 268.394 39.1016C268.394 37.9948 268.426 37.3438 268.491 37.1484C268.687 36.7578 269.077 36.237 269.663 35.5859C270.249 34.9349 270.9 34.3164 271.616 33.7305C272.332 33.1445 272.984 32.6888 273.569 32.3633C274.221 32.0378 274.676 32.0052 274.937 32.2656Z" fill="white"/>
<path d="M324.448 26.6992C325.685 27.7409 326.597 29.8242 327.183 32.9492C327.769 36.0091 327.997 39.4271 327.866 43.2031C327.801 44.375 327.638 46.0026 327.378 48.0859C327.118 50.1042 326.792 52.3503 326.402 54.8242C326.076 57.2331 325.685 59.707 325.23 62.2461C324.839 64.7852 324.448 67.1289 324.058 69.2773C323.667 71.4258 323.309 73.2487 322.984 74.7461C322.723 76.1784 322.56 77.0247 322.495 77.2852C322.365 77.7409 322.007 78.1966 321.421 78.6523C320.835 79.1081 320.217 79.4987 319.566 79.8242C318.98 80.0846 318.394 80.2799 317.808 80.4102C317.222 80.4753 316.864 80.3451 316.734 80.0195C316.668 79.8242 316.668 78.8151 316.734 76.9922C316.799 75.1693 316.896 72.9232 317.027 70.2539C317.157 67.5195 317.287 64.6224 317.417 61.5625C317.612 58.4375 317.775 55.5078 317.905 52.7734C318.036 50.0391 318.166 47.7279 318.296 45.8398C318.426 43.8867 318.491 42.7148 318.491 42.3242C318.556 40.306 318.394 38.5482 318.003 37.0508C317.612 35.4883 316.961 34.707 316.05 34.707C315.724 34.707 315.334 34.8698 314.878 35.1953C314.422 35.4557 313.967 35.7812 313.511 36.1719C313.12 36.5625 312.73 36.9857 312.339 37.4414C312.013 37.8971 311.851 38.3203 311.851 38.7109C311.786 39.8828 311.688 41.6081 311.558 43.8867C311.493 46.1654 311.395 48.6719 311.265 51.4062C311.2 54.1406 311.102 56.9401 310.972 59.8047C310.907 62.6693 310.809 65.306 310.679 67.7148C310.614 70.1237 310.549 72.1419 310.484 73.7695C310.418 75.332 310.353 76.2109 310.288 76.4062C310.158 76.6667 309.735 76.862 309.019 76.9922C308.368 77.0573 307.619 77.0573 306.773 76.9922C305.926 76.9271 305.145 76.7643 304.429 76.5039C303.778 76.2435 303.387 75.8854 303.257 75.4297C303.127 75.1042 303.029 74.1276 302.964 72.5C302.899 70.8073 302.801 68.7891 302.671 66.4453C302.606 64.1016 302.541 61.5951 302.476 58.9258C302.411 56.1914 302.346 53.6523 302.28 51.3086C302.215 48.9648 302.15 46.9466 302.085 45.2539C302.085 43.5612 302.085 42.5195 302.085 42.1289C302.085 40.5664 301.955 39.3294 301.694 38.418C301.434 37.4414 301.109 36.6927 300.718 36.1719C300.392 35.5859 300.002 35.2279 299.546 35.0977C299.09 34.9023 298.635 34.8047 298.179 34.8047C297.984 34.8047 297.691 34.9674 297.3 35.293C296.909 35.5534 296.519 35.9766 296.128 36.5625C295.737 37.0833 295.412 37.7018 295.152 38.418C294.891 39.069 294.793 39.7852 294.859 40.5664C294.859 40.8919 294.891 42.0964 294.956 44.1797C295.021 46.263 295.054 48.7695 295.054 51.6992C295.119 54.6289 295.184 57.7865 295.249 61.1719C295.314 64.5573 295.347 67.7148 295.347 70.6445C295.412 73.5091 295.444 75.9505 295.444 77.9688C295.444 79.9219 295.444 80.9635 295.444 81.0938C295.314 81.4193 294.956 81.6146 294.37 81.6797C293.784 81.6797 293.133 81.5495 292.417 81.2891C291.701 81.0286 291.017 80.6706 290.366 80.2148C289.715 79.694 289.26 79.0755 288.999 78.3594C288.869 77.8385 288.674 76.6992 288.413 74.9414C288.153 73.1836 287.86 71.1003 287.534 68.6914C287.209 66.2174 286.883 63.5807 286.558 60.7812C286.232 57.9167 285.907 55.1823 285.581 52.5781C285.256 49.9089 284.963 47.5 284.702 45.3516C284.507 43.2031 284.344 41.5755 284.214 40.4688C284.019 38.9062 283.791 37.2135 283.53 35.3906C283.335 33.5026 283.14 31.7122 282.944 30.0195C282.814 28.2617 282.717 26.7643 282.652 25.5273C282.586 24.2253 282.652 23.4115 282.847 23.0859C282.977 22.8255 283.433 22.7279 284.214 22.793C285.06 22.8581 285.939 23.0534 286.851 23.3789C287.827 23.6393 288.739 24.0299 289.585 24.5508C290.497 25.0065 291.082 25.4948 291.343 26.0156C291.538 26.4062 291.734 26.8945 291.929 27.4805C292.189 28.0013 292.45 28.8477 292.71 30.0195C293.817 29.1732 294.956 28.3919 296.128 27.6758C297.3 26.8945 298.472 26.3086 299.644 25.918C300.816 25.4622 301.922 25.2344 302.964 25.2344C304.071 25.1693 305.112 25.4622 306.089 26.1133C306.935 26.7643 307.749 27.9036 308.53 29.5312C311.655 27.7734 314.65 26.569 317.515 25.918C320.444 25.2018 322.756 25.4622 324.448 26.6992Z" fill="white"/>
<path d="M380.015 17.1289C380.145 17.3893 380.21 18.3008 380.21 19.8633C380.275 21.4258 380.275 23.3138 380.21 25.5273C380.21 27.7409 380.145 30.1172 380.015 32.6562C379.885 35.1302 379.722 37.474 379.527 39.6875C379.396 40.9245 379.168 42.7799 378.843 45.2539C378.583 47.7279 378.257 50.4622 377.866 53.457C377.476 56.4518 377.053 59.5443 376.597 62.7344C376.206 65.8594 375.816 68.7565 375.425 71.4258C375.034 74.0299 374.676 76.2109 374.351 77.9688C374.09 79.7266 373.895 80.6706 373.765 80.8008C373.504 80.9961 373.081 81.4844 372.495 82.2656C371.909 82.9818 371.258 83.7305 370.542 84.5117C369.891 85.2279 369.273 85.8138 368.687 86.2695C368.101 86.7253 367.71 86.7904 367.515 86.4648C367.385 85.8138 367.319 83.7956 367.319 80.4102C367.319 78.9779 367.319 77.1875 367.319 75.0391C367.385 72.8255 367.45 70.1562 367.515 67.0312C367.645 63.9062 367.808 60.2604 368.003 56.0938C368.198 51.9271 368.426 47.1094 368.687 41.6406C367.385 46.0677 366.213 49.974 365.171 53.3594C364.194 56.7448 363.316 59.707 362.534 62.2461C361.818 64.7201 361.2 66.8359 360.679 68.5938C360.158 70.2865 359.702 71.6862 359.312 72.793C358.465 75.3971 357.912 76.9271 357.652 77.3828C357.391 77.4479 356.968 77.2526 356.382 76.7969C355.861 76.3411 355.243 75.6901 354.527 74.8438C353.875 73.9323 353.192 72.8581 352.476 71.6211C351.825 70.3841 351.271 69.0169 350.816 67.5195C350.36 66.1523 349.774 64.3294 349.058 62.0508C348.407 60.0977 347.56 57.5586 346.519 54.4336C345.477 51.2435 344.207 47.2721 342.71 42.5195C343.101 47.8581 343.426 52.5456 343.687 56.582C343.947 60.6185 344.142 64.1341 344.273 67.1289C344.468 70.1237 344.598 72.6628 344.663 74.7461C344.793 76.7643 344.859 78.457 344.859 79.8242C344.924 82.9492 344.826 84.7396 344.566 85.1953C343.915 85.1953 343.198 84.9023 342.417 84.3164C341.701 83.6654 340.985 82.9167 340.269 82.0703C339.618 81.1589 339.032 80.2799 338.511 79.4336C338.055 78.5872 337.795 77.9688 337.73 77.5781C337.665 77.3177 337.469 76.1133 337.144 73.9648C336.818 71.8164 336.428 69.082 335.972 65.7617C335.581 62.3763 335.125 58.6003 334.605 54.4336C334.149 50.2018 333.693 45.9049 333.237 41.543C332.847 37.181 332.521 32.9492 332.261 28.8477C332 24.681 331.87 20.9701 331.87 17.7148C331.87 17.194 332.521 16.5104 333.823 15.6641C335.125 14.7526 336.59 13.9062 338.218 13.125C339.911 12.2786 341.473 11.5625 342.905 10.9766C344.338 10.3255 345.217 10 345.542 10C345.803 10 346.063 10.7487 346.323 12.2461C346.649 13.7435 347.007 15.6315 347.398 17.9102C347.788 20.1888 348.211 22.7279 348.667 25.5273C349.123 28.3268 349.644 30.9961 350.23 33.5352C350.685 36.1393 351.239 38.8411 351.89 41.6406C352.411 44.0495 352.997 46.7188 353.648 49.6484C354.364 52.513 355.145 55.3125 355.991 58.0469C356.903 54.0755 357.717 50.4948 358.433 47.3047C359.214 44.0495 359.898 41.2826 360.484 39.0039C361.2 36.3346 361.818 33.9583 362.339 31.875C363.511 26.7969 364.65 22.793 365.757 19.8633C366.929 16.9336 367.678 15.2083 368.003 14.6875C368.198 14.4271 368.882 14.362 370.054 14.4922C371.291 14.6224 372.625 14.8503 374.058 15.1758C375.49 15.4362 376.792 15.7617 377.964 16.1523C379.201 16.543 379.885 16.8685 380.015 17.1289Z" fill="white"/>
<path d="M392.417 56.2891C393.459 55.8984 394.631 55.4753 395.933 55.0195C397.3 54.4987 398.602 54.043 399.839 53.6523C401.076 53.1966 402.183 52.806 403.159 52.4805C404.136 52.1549 404.852 51.8945 405.308 51.6992C405.243 50.9831 405.145 50.1693 405.015 49.2578C404.95 48.2812 404.852 47.3698 404.722 46.5234C404.592 45.612 404.429 44.8307 404.234 44.1797C404.038 43.5286 403.843 43.138 403.648 43.0078C403.127 42.8125 402.248 42.6497 401.011 42.5195C399.839 42.3242 398.602 42.3568 397.3 42.6172C396.063 42.8776 394.924 43.3659 393.882 44.082C392.84 44.7982 392.254 45.9375 392.124 47.5C391.994 48.5417 391.961 49.8438 392.027 51.4062C392.092 52.9688 392.222 54.5964 392.417 56.2891ZM413.609 57.8516C413.543 57.9818 412.762 58.2422 411.265 58.6328C409.767 59.0234 407.977 59.4466 405.894 59.9023C403.81 60.293 401.597 60.7161 399.253 61.1719C396.909 61.5625 394.891 61.888 393.198 62.1484C393.524 64.7526 393.915 67.0964 394.37 69.1797C394.826 71.1979 395.217 72.4674 395.542 72.9883C395.868 73.444 396.291 73.8672 396.812 74.2578C397.267 74.5833 397.821 74.9089 398.472 75.2344C399.188 75.4948 400.034 75.6901 401.011 75.8203C401.727 76.0156 402.411 75.7552 403.062 75.0391C403.583 74.388 404.038 73.2487 404.429 71.6211C404.885 69.9935 405.112 67.4219 405.112 63.9062C407.131 63.5807 408.693 63.3854 409.8 63.3203C410.972 63.2552 411.818 63.2552 412.339 63.3203C412.99 63.3854 413.381 63.4831 413.511 63.6133C413.576 63.8086 413.576 64.2969 413.511 65.0781C413.446 65.8594 413.283 66.8359 413.023 68.0078C412.827 69.1146 412.567 70.3516 412.241 71.7188C411.981 73.0208 411.655 74.2904 411.265 75.5273C410.874 76.6992 410.451 77.7734 409.995 78.75C409.54 79.6615 409.051 80.3125 408.53 80.7031C406.968 81.875 405.015 82.4609 402.671 82.4609C400.327 82.3958 398.016 82.0703 395.737 81.4844C393.459 80.8333 391.408 80.0846 389.585 79.2383C387.762 78.3268 386.623 77.5781 386.167 76.9922C385.842 76.6016 385.549 75.625 385.288 74.0625C385.028 72.4349 384.8 70.4818 384.605 68.2031C384.474 65.9245 384.377 63.418 384.312 60.6836C384.247 57.9492 384.279 55.2799 384.409 52.6758C384.605 50.0716 384.865 47.6628 385.191 45.4492C385.581 43.2357 386.102 41.4453 386.753 40.0781C387.73 38.125 389.325 36.5299 391.538 35.293C393.752 34.056 396.096 33.2096 398.569 32.7539C401.043 32.2982 403.387 32.2331 405.601 32.5586C407.879 32.8841 409.572 33.6003 410.679 34.707C411.33 35.3581 411.916 36.6602 412.437 38.6133C412.958 40.5013 413.283 42.8125 413.413 45.5469C413.413 45.8073 413.446 46.556 413.511 47.793C413.576 49.0299 413.609 50.3646 413.609 51.7969C413.674 53.1641 413.706 54.4661 413.706 55.7031C413.706 56.9401 413.674 57.6562 413.609 57.8516Z" fill="white"/>
<path d="M459.409 26.6992C460.646 27.7409 461.558 29.8242 462.144 32.9492C462.73 36.0091 462.958 39.4271 462.827 43.2031C462.762 44.375 462.599 46.0026 462.339 48.0859C462.079 50.1042 461.753 52.3503 461.362 54.8242C461.037 57.2331 460.646 59.707 460.191 62.2461C459.8 64.7852 459.409 67.1289 459.019 69.2773C458.628 71.4258 458.27 73.2487 457.944 74.7461C457.684 76.1784 457.521 77.0247 457.456 77.2852C457.326 77.7409 456.968 78.1966 456.382 78.6523C455.796 79.1081 455.178 79.4987 454.527 79.8242C453.941 80.0846 453.355 80.2799 452.769 80.4102C452.183 80.4753 451.825 80.3451 451.694 80.0195C451.629 79.8242 451.629 78.8151 451.694 76.9922C451.76 75.1693 451.857 72.9232 451.987 70.2539C452.118 67.5195 452.248 64.6224 452.378 61.5625C452.573 58.4375 452.736 55.5078 452.866 52.7734C452.997 50.0391 453.127 47.7279 453.257 45.8398C453.387 43.8867 453.452 42.7148 453.452 42.3242C453.517 40.306 453.355 38.5482 452.964 37.0508C452.573 35.4883 451.922 34.707 451.011 34.707C450.685 34.707 450.295 34.8698 449.839 35.1953C449.383 35.4557 448.928 35.7812 448.472 36.1719C448.081 36.5625 447.691 36.9857 447.3 37.4414C446.974 37.8971 446.812 38.3203 446.812 38.7109C446.747 39.8828 446.649 41.6081 446.519 43.8867C446.454 46.1654 446.356 48.6719 446.226 51.4062C446.161 54.1406 446.063 56.9401 445.933 59.8047C445.868 62.6693 445.77 65.306 445.64 67.7148C445.575 70.1237 445.51 72.1419 445.444 73.7695C445.379 75.332 445.314 76.2109 445.249 76.4062C445.119 76.6667 444.696 76.862 443.98 76.9922C443.329 77.0573 442.58 77.0573 441.734 76.9922C440.887 76.9271 440.106 76.7643 439.39 76.5039C438.739 76.2435 438.348 75.8854 438.218 75.4297C438.088 75.1042 437.99 74.1276 437.925 72.5C437.86 70.8073 437.762 68.7891 437.632 66.4453C437.567 64.1016 437.502 61.5951 437.437 58.9258C437.372 56.1914 437.306 53.6523 437.241 51.3086C437.176 48.9648 437.111 46.9466 437.046 45.2539C437.046 43.5612 437.046 42.5195 437.046 42.1289C437.046 40.5664 436.916 39.3294 436.655 38.418C436.395 37.4414 436.069 36.6927 435.679 36.1719C435.353 35.5859 434.963 35.2279 434.507 35.0977C434.051 34.9023 433.596 34.8047 433.14 34.8047C432.944 34.8047 432.652 34.9674 432.261 35.293C431.87 35.5534 431.48 35.9766 431.089 36.5625C430.698 37.0833 430.373 37.7018 430.112 38.418C429.852 39.069 429.754 39.7852 429.819 40.5664C429.819 40.8919 429.852 42.0964 429.917 44.1797C429.982 46.263 430.015 48.7695 430.015 51.6992C430.08 54.6289 430.145 57.7865 430.21 61.1719C430.275 64.5573 430.308 67.7148 430.308 70.6445C430.373 73.5091 430.405 75.9505 430.405 77.9688C430.405 79.9219 430.405 80.9635 430.405 81.0938C430.275 81.4193 429.917 81.6146 429.331 81.6797C428.745 81.6797 428.094 81.5495 427.378 81.2891C426.662 81.0286 425.978 80.6706 425.327 80.2148C424.676 79.694 424.221 79.0755 423.96 78.3594C423.83 77.8385 423.635 76.6992 423.374 74.9414C423.114 73.1836 422.821 71.1003 422.495 68.6914C422.17 66.2174 421.844 63.5807 421.519 60.7812C421.193 57.9167 420.868 55.1823 420.542 52.5781C420.217 49.9089 419.924 47.5 419.663 45.3516C419.468 43.2031 419.305 41.5755 419.175 40.4688C418.98 38.9062 418.752 37.2135 418.491 35.3906C418.296 33.5026 418.101 31.7122 417.905 30.0195C417.775 28.2617 417.678 26.7643 417.612 25.5273C417.547 24.2253 417.612 23.4115 417.808 23.0859C417.938 22.8255 418.394 22.7279 419.175 22.793C420.021 22.8581 420.9 23.0534 421.812 23.3789C422.788 23.6393 423.7 24.0299 424.546 24.5508C425.458 25.0065 426.043 25.4948 426.304 26.0156C426.499 26.4062 426.694 26.8945 426.89 27.4805C427.15 28.0013 427.411 28.8477 427.671 30.0195C428.778 29.1732 429.917 28.3919 431.089 27.6758C432.261 26.8945 433.433 26.3086 434.605 25.918C435.777 25.4622 436.883 25.2344 437.925 25.2344C439.032 25.1693 440.073 25.4622 441.05 26.1133C441.896 26.7643 442.71 27.9036 443.491 29.5312C446.616 27.7734 449.611 26.569 452.476 25.918C455.405 25.2018 457.717 25.4622 459.409 26.6992Z" fill="white"/>
<path d="M489.194 31.0938C489.65 31.4844 490.073 32.2331 490.464 33.3398C490.92 34.4466 491.31 35.7812 491.636 37.3438C491.961 38.9062 492.254 40.599 492.515 42.4219C492.775 44.2448 493.003 46.0352 493.198 47.793C493.394 49.5508 493.524 51.2109 493.589 52.7734C493.719 54.2708 493.817 55.5078 493.882 56.4844C493.947 57.6562 493.98 58.8932 493.98 60.1953C494.045 61.4323 494.045 62.6367 493.98 63.8086C493.98 64.9154 493.915 65.9245 493.784 66.8359C493.719 67.7474 493.589 68.431 493.394 68.8867C493.003 69.8633 492.319 70.5469 491.343 70.9375C490.431 71.263 489.39 71.4909 488.218 71.6211C487.632 71.6862 486.623 71.7188 485.191 71.7188C483.823 71.6536 482.326 71.5885 480.698 71.5234C479.136 71.3932 477.638 71.263 476.206 71.1328C474.774 71.0026 473.7 70.8724 472.984 70.7422C471.551 70.4167 470.51 69.9935 469.859 69.4727C469.273 68.9518 468.687 68.2031 468.101 67.2266C467.905 66.8359 467.743 65.8594 467.612 64.2969C467.482 62.6693 467.385 60.7487 467.319 58.5352C467.319 56.2565 467.352 53.8151 467.417 51.2109C467.482 48.6068 467.58 46.1328 467.71 43.7891C467.905 41.4453 468.101 39.3945 468.296 37.6367C468.556 35.8789 468.882 34.707 469.273 34.1211C469.924 33.2096 471.03 32.3633 472.593 31.582C474.221 30.8008 475.685 30.1823 476.987 29.7266C477.638 29.5312 478.485 29.401 479.527 29.3359C480.633 29.2057 481.773 29.2057 482.944 29.3359C484.181 29.401 485.353 29.5964 486.46 29.9219C487.567 30.1823 488.478 30.5729 489.194 31.0938ZM483.726 61.3672C483.856 61.1068 483.986 60.3255 484.116 59.0234C484.312 57.6562 484.442 56.0286 484.507 54.1406C484.637 52.2526 484.702 50.2344 484.702 48.0859C484.767 45.9375 484.8 43.9518 484.8 42.1289C484.8 40.306 484.735 38.776 484.605 37.5391C484.474 36.237 484.312 35.4883 484.116 35.293C483.791 35.0326 483.303 34.9349 482.652 35C482.066 35 481.447 35.0977 480.796 35.293C480.145 35.4232 479.559 35.6185 479.038 35.8789C478.517 36.0742 478.159 36.2695 477.964 36.4648C477.118 37.181 476.662 38.3529 476.597 39.9805C476.597 40.4362 476.532 41.7383 476.402 43.8867C476.336 45.9701 476.304 48.2487 476.304 50.7227C476.304 53.1315 476.336 55.3776 476.402 57.4609C476.532 59.5443 476.76 60.8138 477.085 61.2695C477.411 61.7253 477.866 62.0833 478.452 62.3438C479.103 62.5391 479.754 62.6367 480.405 62.6367C481.122 62.6367 481.773 62.5391 482.359 62.3438C483.01 62.0833 483.465 61.7578 483.726 61.3672Z" fill="white"/>
<path d="M520.444 31.2891C520.965 31.6146 521.454 32.2656 521.909 33.2422C522.43 34.1536 522.886 35.2279 523.277 36.4648C523.732 37.6367 524.09 38.9062 524.351 40.2734C524.676 41.6406 524.937 42.9102 525.132 44.082C525.392 45.2539 525.555 46.263 525.62 47.1094C525.685 47.8906 525.685 48.3789 525.62 48.5742C525.49 48.8346 525.099 49.0951 524.448 49.3555C523.862 49.6159 522.984 49.9089 521.812 50.2344C520.64 50.5599 519.012 50.918 516.929 51.3086C516.799 47.7279 516.538 45.026 516.148 43.2031C515.757 41.3151 515.334 39.9805 514.878 39.1992C514.357 38.2878 513.804 37.832 513.218 37.832C512.632 38.0924 512.111 38.418 511.655 38.8086C511.2 39.1341 510.809 39.4922 510.484 39.8828C510.093 40.3385 509.735 40.8268 509.409 41.3477C509.279 41.543 509.149 41.9987 509.019 42.7148C508.888 43.431 508.758 44.5052 508.628 45.9375C508.628 46.3932 508.596 47.3372 508.53 48.7695C508.53 50.2018 508.498 51.862 508.433 53.75C508.433 55.638 508.4 57.6237 508.335 59.707C508.335 61.7904 508.303 63.7435 508.237 65.5664C508.237 67.3242 508.205 68.8216 508.14 70.0586C508.14 71.2956 508.107 72.0117 508.042 72.207C507.912 72.5326 507.586 72.9883 507.066 73.5742C506.545 74.1602 505.959 74.7135 505.308 75.2344C504.657 75.6901 504.038 76.0807 503.452 76.4062C502.866 76.6667 502.476 76.6341 502.28 76.3086C502.085 76.1133 501.89 75.2669 501.694 73.7695C501.499 72.2721 501.271 70.4492 501.011 68.3008C500.816 66.0872 500.588 63.6784 500.327 61.0742C500.067 58.4701 499.839 55.9635 499.644 53.5547C499.448 51.1458 499.286 48.9974 499.155 47.1094C499.025 45.1562 498.928 43.7565 498.862 42.9102C498.797 41.6732 498.732 40.306 498.667 38.8086C498.602 37.3112 498.537 35.9115 498.472 34.6094C498.472 33.2422 498.472 32.0703 498.472 31.0938C498.537 30.0521 498.667 29.4336 498.862 29.2383C498.993 29.043 499.416 29.0104 500.132 29.1406C500.913 29.2057 501.727 29.401 502.573 29.7266C503.485 29.987 504.331 30.3451 505.112 30.8008C505.894 31.2565 506.415 31.6797 506.675 32.0703C506.87 32.3958 507.066 32.8841 507.261 33.5352C508.498 32.8841 509.67 32.2982 510.777 31.7773C511.948 31.1914 513.055 30.7682 514.097 30.5078C515.204 30.2474 516.278 30.1823 517.319 30.3125C518.361 30.3776 519.403 30.7031 520.444 31.2891Z" fill="white"/>
<path d="M551.402 29.8242C551.597 29.9544 551.76 30.8008 551.89 32.3633C552.02 33.9258 552.118 35.9766 552.183 38.5156C552.313 40.9896 552.378 43.8216 552.378 47.0117C552.378 50.2018 552.378 53.4896 552.378 56.875C552.378 60.2604 552.346 63.6133 552.28 66.9336C552.28 70.1888 552.215 73.1836 552.085 75.918C552.02 78.5872 551.922 80.8659 551.792 82.7539C551.727 84.6419 551.629 85.8464 551.499 86.3672C551.369 86.7578 550.978 87.3438 550.327 88.125C549.741 88.9714 549.025 89.8177 548.179 90.6641C547.333 91.5104 546.454 92.2591 545.542 92.9102C544.696 93.6263 543.98 94.082 543.394 94.2773C542.222 94.668 540.92 94.6029 539.487 94.082C538.055 93.5612 536.688 92.8776 535.386 92.0312C534.149 91.1849 533.042 90.2734 532.066 89.2969C531.154 88.3854 530.601 87.7344 530.405 87.3438C530.21 86.9531 530.015 86.3672 529.819 85.5859C529.689 84.8698 529.592 84.1536 529.527 83.4375C529.461 82.6562 529.461 82.0052 529.527 81.4844C529.657 80.8984 529.885 80.6055 530.21 80.6055C530.471 80.6055 531.154 80.8984 532.261 81.4844C533.433 82.0703 534.67 82.6888 535.972 83.3398C537.274 83.9258 538.478 84.4141 539.585 84.8047C540.692 85.1953 541.375 85.1628 541.636 84.707C541.896 84.1862 542.157 82.7865 542.417 80.5078C542.678 78.1641 542.938 75.332 543.198 72.0117C540.92 72.793 538.836 73.3138 536.948 73.5742C535.125 73.7695 533.596 73.444 532.359 72.5977C531.773 72.207 531.154 71.5234 530.503 70.5469C529.917 69.5703 529.364 68.4635 528.843 67.2266C528.387 65.9245 527.997 64.5573 527.671 63.125C527.346 61.6276 527.183 60.2279 527.183 58.9258C527.183 58.0143 527.28 56.7122 527.476 55.0195C527.736 53.3268 528.062 51.4714 528.452 49.4531C528.843 47.4349 529.234 45.3516 529.624 43.2031C530.08 41.0547 530.503 39.1016 530.894 37.3438C531.349 35.5859 531.708 34.1211 531.968 32.9492C532.293 31.7122 532.489 31.0286 532.554 30.8984C532.684 30.7031 533.01 30.6055 533.53 30.6055C534.051 30.5404 534.605 30.5729 535.191 30.7031C535.777 30.7682 536.33 30.931 536.851 31.1914C537.372 31.4518 537.697 31.7448 537.827 32.0703C537.892 32.3307 537.892 33.1445 537.827 34.5117C537.827 35.8789 537.73 37.5065 537.534 39.3945C537.404 41.2826 537.241 43.3333 537.046 45.5469C536.916 47.6953 536.753 49.7461 536.558 51.6992C536.428 53.5872 536.297 55.2148 536.167 56.582C536.037 57.9492 535.972 58.763 535.972 59.0234C535.972 60.0651 536.069 61.0742 536.265 62.0508C536.525 62.9622 536.818 63.776 537.144 64.4922C537.534 65.1432 537.925 65.6641 538.316 66.0547C538.706 66.4453 539.064 66.5755 539.39 66.4453C540.497 66.25 541.506 65.9896 542.417 65.6641C542.873 65.4688 543.296 65.2734 543.687 65.0781C543.882 61.888 544.077 58.6328 544.273 55.3125C544.468 51.9271 544.631 48.8346 544.761 46.0352C544.891 43.2357 544.989 40.8594 545.054 38.9062C545.184 36.9531 545.249 35.7161 545.249 35.1953C545.249 34.6094 545.51 33.9583 546.03 33.2422C546.551 32.4609 547.137 31.7773 547.788 31.1914C548.439 30.6055 549.09 30.1823 549.741 29.9219C550.458 29.5964 551.011 29.5638 551.402 29.8242Z" fill="white"/>
</svg>
